<?xml version="1.0" encoding="utf-8"?>
<!DOCTYPE svg PUBLIC "-//W3C//DTD SVG 1.1//EN" "http://www.w3.org/Graphics/SVG/1.1/DTD/svg11.dtd">
<svg xmlns="http://www.w3.org/2000/svg" xmlns:xlink="http://www.w3.org/1999/xlink" version="1.1" baseProfile="full" width="64" height="64" viewBox="0 0 64.00 64.00" enable-background="new 0 0 64.00 64.00" xml:space="preserve">
	<path fill="#FFFFFF" fill-opacity="1" stroke-width="0.2" stroke-linejoin="round" d="M 14.931,43.8921C 15.5163,45.0687 16.1017,46.2454 17.4037,47.213C 18.7058,48.1806 20.7246,48.9391 22.7434,49.6977C 21.9072,51.2028 21.0711,52.708 19.3031,52.9827C 17.5351,53.2575 14.8354,52.3018 12.1357,51.3462C 9.67488,50.1755 7.21408,49.0048 6.50928,45.7675C 5.80448,42.5303 6.85571,37.2264 7.93679,32.5556C 9.01787,27.8849 10.1288,23.8472 11.8161,21.1714C 13.5035,18.4956 15.7672,17.1815 18.1399,16.4185C 20.5126,15.6555 22.9943,15.4435 25.476,15.2314C 23.3527,16.0527 21.2293,16.8739 19.551,17.7116C 17.8726,18.5493 16.6392,19.4034 15.4058,20.2576C 21.3279,18.3761 27.2499,16.4947 33.0152,16.6291C 38.7805,16.7634 44.389,18.9137 49.9975,21.0639C 48.4923,19.8813 46.9872,18.6987 45.1774,17.7191C 43.3676,16.7396 41.2533,15.9631 39.1389,15.1866C 41.7669,15.4016 44.395,15.6167 46.9573,16.5783C 49.5197,17.5399 52.0163,19.2481 53.7216,22.0912C 55.4268,24.9343 56.3406,28.9122 57.2545,32.8901C 58.5207,38.1223 59.787,43.3545 58.4879,46.6276C 57.1888,49.9007 53.3244,51.2148 50.6635,52.0868C 48.0026,52.9588 46.5452,53.3889 45.3626,52.923C 44.18,52.4571 43.2721,51.0953 42.3642,49.7335C 44.1322,49.1123 45.9001,48.4911 47.3217,47.4638C 48.7432,46.4365 49.8183,45.003 50.8934,43.5695C 47.5367,45.6421 44.18,47.7147 40.0468,48.751C 35.9135,49.7873 31.0039,49.7873 26.6885,48.8047C 22.3731,47.8222 18.6521,45.8571 14.931,43.8921 Z "/>
	<ellipse fill="#000000" fill-opacity="1" stroke-width="0.2" stroke-linejoin="round" cx="40.6442" cy="36.9396" rx="4.83801" ry="5.37556"/>
	<ellipse fill="#000000" fill-opacity="1" stroke-width="0.2" stroke-linejoin="round" cx="24.177" cy="36.9396" rx="4.83801" ry="5.37556"/>
</svg>
